<svg width="206" height="121" viewBox="0 0 206 121" fill="none" xmlns="http://www.w3.org/2000/svg">
<path d="M20.605 58V49.29H1.3V39.995L18.72 11.85H32.305V39.54H37.7V49.29H32.305V58H20.605ZM11.96 39.54H20.605V26.02L11.96 39.54ZM41.5746 58C41.5746 53.9267 42.0513 50.4167 43.0046 47.47C43.9579 44.48 45.6046 41.8367 47.9446 39.54C50.2846 37.2 53.4913 34.99 57.5646 32.91C58.7779 32.3033 59.8179 31.675 60.6846 31.025C61.5513 30.375 62.2229 29.6167 62.6996 28.75C63.1763 27.8833 63.4146 26.8 63.4146 25.5C63.4146 24.5033 63.2413 23.6583 62.8946 22.965C62.5913 22.2717 62.1146 21.7517 61.4646 21.405C60.8579 21.015 60.0779 20.82 59.1246 20.82C57.3913 20.82 56.1563 21.3617 55.4196 22.445C54.6829 23.485 54.1413 25.0233 53.7946 27.06L41.7046 26.41C42.1379 21.5567 43.8063 17.7433 46.7096 14.97C49.6563 12.1967 53.8813 10.81 59.3846 10.81C63.0246 10.81 66.0146 11.395 68.3546 12.565C70.7379 13.6917 72.4929 15.295 73.6196 17.375C74.7896 19.455 75.3746 21.9033 75.3746 24.72C75.3746 27.2767 74.9846 29.465 74.2046 31.285C73.4246 33.105 72.1679 34.7733 70.4346 36.29C68.7013 37.7633 66.3613 39.3233 63.4146 40.97C61.1179 42.2267 59.3413 43.2667 58.0846 44.09C56.8713 44.9133 56.0046 45.6067 55.4846 46.17C55.0079 46.69 54.7263 47.21 54.6396 47.73H75.3746V58H41.5746ZM94.4592 50.85L89.3892 28.75L90.9492 28.36V58H80.5492V11.85H92.2492L98.6192 35.25H96.2792L102.649 11.85H114.349V58H103.949V28.36L105.509 28.75L100.439 50.85H94.4592ZM116.924 33.105V27.58H140.779L140.064 33.105H116.924ZM116.924 42.79V37.265H139.479L138.764 42.79H116.924ZM137.594 59.04C133.78 59.04 130.574 58.0867 127.974 56.18C125.417 54.23 123.467 51.4567 122.124 47.86C120.824 44.2633 120.174 39.9733 120.174 34.99C120.174 30.0067 120.824 25.7167 122.124 22.12C123.467 18.48 125.417 15.685 127.974 13.735C130.574 11.785 133.78 10.81 137.594 10.81C142.36 10.81 146.217 12.3917 149.164 15.555C152.11 18.7183 153.93 23.2683 154.624 29.205L142.859 29.66C142.555 26.8433 141.949 24.6767 141.039 23.16C140.129 21.6 138.98 20.82 137.594 20.82C136.294 20.82 135.232 21.3833 134.409 22.51C133.629 23.5933 133.044 25.1967 132.654 27.32C132.307 29.4 132.134 31.9567 132.134 34.99C132.134 37.98 132.307 40.5367 132.654 42.66C133.044 44.74 133.629 46.3217 134.409 47.405C135.232 48.4883 136.294 49.03 137.594 49.03C138.85 49.03 139.955 48.2283 140.909 46.625C141.905 45.0217 142.555 42.7467 142.859 39.8L154.624 40.255C153.93 46.2783 152.11 50.915 149.164 54.165C146.217 57.415 142.36 59.04 137.594 59.04Z" fill="#9EEF20"/>
<path d="M0.498613 94L4.53861 79.8H7.61861L11.6586 94H9.11861L6.07861 82.6L3.03861 94H0.498613ZM2.97861 90.64L3.65861 88.42H8.49861L9.17861 90.64H2.97861ZM12.7908 94V79.8H15.4508L19.7508 90V79.8H22.1508V94H19.4908L15.1908 83.8V94H12.7908ZM24.183 94V79.8H26.843L31.143 90V79.8H33.543V94H30.883L26.583 83.8V94H24.183ZM40.2552 94.32C38.7218 94.32 37.5218 93.8667 36.6552 92.96C35.8018 92.04 35.3752 90.7467 35.3752 89.08V79.8H37.8552V89.24C37.8552 90.1467 38.0552 90.8467 38.4552 91.34C38.8685 91.8333 39.4685 92.08 40.2552 92.08C41.0418 92.08 41.6352 91.8333 42.0352 91.34C42.4485 90.8467 42.6552 90.1467 42.6552 89.24V79.8H45.1352V89.08C45.1352 90.7467 44.7018 92.04 43.8352 92.96C42.9818 93.8667 41.7885 94.32 40.2552 94.32ZM47.3674 94V79.8H56.1674V82.08H49.8474V85.78H55.9274V87.98H49.8474V91.72H56.3274V94H47.3674ZM58.9596 94V79.8H61.4396V93.2L59.7396 91.72H67.9196V94H58.9596ZM74.5717 94.32C73.5317 94.32 72.6251 94.1133 71.8517 93.7C71.0917 93.2867 70.4917 92.7067 70.0517 91.96C69.6117 91.2 69.3517 90.3067 69.2717 89.28L71.7917 89.14C71.8851 89.7933 72.0517 90.34 72.2917 90.78C72.5451 91.2067 72.8717 91.5333 73.2717 91.76C73.6851 91.9733 74.1584 92.08 74.6917 92.08C75.1984 92.08 75.6251 92.0133 75.9717 91.88C76.3317 91.7467 76.6051 91.5467 76.7917 91.28C76.9784 91.0133 77.0717 90.6933 77.0717 90.32C77.0717 89.92 76.9784 89.5733 76.7917 89.28C76.6051 88.9867 76.2717 88.7133 75.7917 88.46C75.3117 88.2067 74.6251 87.96 73.7317 87.72C72.7717 87.4667 71.9851 87.1733 71.3717 86.84C70.7584 86.5067 70.3051 86.0933 70.0117 85.6C69.7184 85.0933 69.5717 84.46 69.5717 83.7C69.5717 82.8467 69.7584 82.1067 70.1317 81.48C70.5184 80.84 71.0717 80.3467 71.7917 80C72.5251 79.6533 73.3984 79.48 74.4117 79.48C75.4117 79.48 76.2651 79.6733 76.9717 80.06C77.6784 80.4333 78.2317 80.9733 78.6317 81.68C79.0451 82.3733 79.2984 83.2 79.3917 84.16L76.8517 84.28C76.7851 83.76 76.6451 83.3133 76.4317 82.94C76.2317 82.5533 75.9517 82.2533 75.5917 82.04C75.2451 81.8267 74.8184 81.72 74.3117 81.72C73.6317 81.72 73.0917 81.8933 72.6917 82.24C72.2917 82.5733 72.0917 83.0133 72.0917 83.56C72.0917 83.9467 72.1784 84.2667 72.3517 84.52C72.5384 84.7733 72.8517 85 73.2917 85.2C73.7317 85.4 74.3517 85.6 75.1517 85.8C76.2584 86.0933 77.1317 86.44 77.7717 86.84C78.4251 87.24 78.8917 87.72 79.1717 88.28C79.4517 88.84 79.5917 89.5 79.5917 90.26C79.5917 91.0733 79.3851 91.7867 78.9717 92.4C78.5584 93.0133 77.9784 93.4867 77.2317 93.82C76.4851 94.1533 75.5984 94.32 74.5717 94.32ZM92.7361 94V79.8H96.2761C97.5694 79.8 98.6828 80.08 99.6161 80.64C100.563 81.1867 101.283 81.9933 101.776 83.06C102.283 84.1133 102.536 85.4 102.536 86.92C102.536 88.44 102.283 89.7267 101.776 90.78C101.283 91.8333 100.563 92.6333 99.6161 93.18C98.6828 93.7267 97.5694 94 96.2761 94H92.7361ZM95.1961 91.72H96.2761C97.4628 91.72 98.3761 91.32 99.0161 90.52C99.6561 89.72 99.9761 88.52 99.9761 86.92C99.9761 85.3067 99.6561 84.1 99.0161 83.3C98.3761 82.4867 97.4628 82.08 96.2761 82.08H95.1961V91.72ZM104.328 94V79.8H113.128V82.08H106.808V85.78H112.888V87.98H106.808V91.72H113.288V94H104.328ZM4.83861 120V108.08H0.878613V105.8H11.2786V108.08H7.31861V120H4.83861ZM12.7508 120V105.8H17.2508C18.7708 105.8 19.9641 106.18 20.8308 106.94C21.6975 107.7 22.1308 108.74 22.1308 110.06C22.1308 110.74 21.9775 111.34 21.6708 111.86C21.3775 112.38 20.9841 112.793 20.4908 113.1C19.9975 113.393 19.4575 113.56 18.8708 113.6L18.7908 113.34C19.8175 113.38 20.5841 113.607 21.0908 114.02C21.5975 114.42 21.8908 115.08 21.9708 116L22.3108 120H19.8308L19.5308 116.58C19.4908 116.073 19.3908 115.68 19.2308 115.4C19.0841 115.12 18.8508 114.927 18.5308 114.82C18.2241 114.713 17.7975 114.66 17.2508 114.66H15.2308V120H12.7508ZM15.2308 112.38H17.1908C17.9641 112.38 18.5508 112.193 18.9508 111.82C19.3641 111.447 19.5708 110.913 19.5708 110.22C19.5708 109.527 19.3641 109 18.9508 108.64C18.5508 108.267 17.9641 108.08 17.1908 108.08H15.2308V112.38ZM23.283 120L27.323 105.8H30.403L34.443 120H31.903L28.863 108.6L25.823 120H23.283ZM25.763 116.64L26.443 114.42H31.283L31.963 116.64H25.763ZM38.9152 120L34.7352 105.8H37.3552L40.6352 117.72H39.8752L43.1552 105.8H45.7752L41.5952 120H38.9152ZM46.0674 120L50.1074 105.8H53.1874L57.2274 120H54.6874L51.6474 108.6L48.6074 120H46.0674ZM48.5474 116.64L49.2274 114.42H54.0674L54.7474 116.64H48.5474ZM63.0396 120.32C61.5062 120.32 60.3062 119.867 59.4396 118.96C58.5862 118.04 58.1596 116.747 58.1596 115.08V105.8H60.6396V115.24C60.6396 116.147 60.8396 116.847 61.2396 117.34C61.6529 117.833 62.2529 118.08 63.0396 118.08C63.8262 118.08 64.4196 117.833 64.8196 117.34C65.2329 116.847 65.4396 116.147 65.4396 115.24V105.8H67.9196V115.08C67.9196 116.747 67.4862 118.04 66.6196 118.96C65.7662 119.867 64.5729 120.32 63.0396 120.32ZM69.2317 120L72.7917 112.86L69.2917 105.8H72.0317L74.4517 111.02L76.8717 105.8H79.5717L76.0717 112.88L79.6317 120H76.8917L74.4117 114.7L71.9117 120H69.2317ZM97.2161 120.32C96.1761 120.32 95.2561 120.04 94.4561 119.48C93.6561 118.907 93.0294 118.067 92.5761 116.96C92.1228 115.853 91.8961 114.507 91.8961 112.92C91.8961 111.387 92.1094 110.067 92.5361 108.96C92.9628 107.853 93.5761 107 94.3761 106.4C95.1894 105.787 96.1561 105.48 97.2761 105.48C98.1828 105.48 98.9828 105.673 99.6761 106.06C100.369 106.447 100.943 107.007 101.396 107.74C101.863 108.46 102.196 109.32 102.396 110.32L99.8361 110.48C99.6628 109.613 99.3628 108.94 98.9361 108.46C98.5094 107.98 97.9628 107.74 97.2961 107.74C96.6961 107.74 96.1828 107.94 95.7561 108.34C95.3294 108.74 95.0028 109.327 94.7761 110.1C94.5628 110.873 94.4561 111.813 94.4561 112.92C94.4561 114.013 94.5694 114.947 94.7961 115.72C95.0361 116.48 95.3761 117.06 95.8161 117.46C96.2561 117.86 96.7961 118.06 97.4361 118.06C97.9694 118.06 98.4294 117.927 98.8161 117.66C99.2028 117.38 99.5028 116.987 99.7161 116.48C99.9428 115.973 100.069 115.38 100.096 114.7H97.2561V112.68H102.376V120H100.576L100.456 116.84L101.056 116.66C100.936 117.327 100.716 117.94 100.396 118.5C100.089 119.06 99.6694 119.507 99.1361 119.84C98.6161 120.16 97.9761 120.32 97.2161 120.32ZM104.328 120V105.8H113.128V108.08H106.808V111.78H112.888V113.98H106.808V117.72H113.288V120H104.328ZM107.828 104.54L109.108 101.72H111.668L109.868 104.54H107.828ZM115.32 120V105.8H117.98L122.28 116V105.8H124.68V120H122.02L117.72 109.8V120H115.32ZM127.113 120V105.8H135.913V108.08H129.593V111.78H135.673V113.98H129.593V117.72H136.073V120H127.113ZM130.613 104.54L131.893 101.72H134.453L132.653 104.54H130.613ZM138.065 120V105.8H142.565C144.085 105.8 145.278 106.18 146.145 106.94C147.012 107.7 147.445 108.74 147.445 110.06C147.445 110.74 147.292 111.34 146.985 111.86C146.692 112.38 146.298 112.793 145.805 113.1C145.312 113.393 144.772 113.56 144.185 113.6L144.105 113.34C145.132 113.38 145.898 113.607 146.405 114.02C146.912 114.42 147.205 115.08 147.285 116L147.625 120H145.145L144.845 116.58C144.805 116.073 144.705 115.68 144.545 115.4C144.398 115.12 144.165 114.927 143.845 114.82C143.538 114.713 143.112 114.66 142.565 114.66H140.545V120H138.065ZM140.545 112.38H142.505C143.278 112.38 143.865 112.193 144.265 111.82C144.678 111.447 144.885 110.913 144.885 110.22C144.885 109.527 144.678 109 144.265 108.64C143.865 108.267 143.278 108.08 142.505 108.08H140.545V112.38ZM149.897 120V105.8H158.697V108.08H152.377V111.78H158.457V113.98H152.377V117.72H158.857V120H149.897ZM153.397 104.54L154.677 101.72H157.237L155.437 104.54H153.397ZM165.709 120.32C164.669 120.32 163.763 120.113 162.989 119.7C162.229 119.287 161.629 118.707 161.189 117.96C160.749 117.2 160.489 116.307 160.409 115.28L162.929 115.14C163.023 115.793 163.189 116.34 163.429 116.78C163.683 117.207 164.009 117.533 164.409 117.76C164.823 117.973 165.296 118.08 165.829 118.08C166.336 118.08 166.763 118.013 167.109 117.88C167.469 117.747 167.743 117.547 167.929 117.28C168.116 117.013 168.209 116.693 168.209 116.32C168.209 115.92 168.116 115.573 167.929 115.28C167.743 114.987 167.409 114.713 166.929 114.46C166.449 114.207 165.763 113.96 164.869 113.72C163.909 113.467 163.123 113.173 162.509 112.84C161.896 112.507 161.443 112.093 161.149 111.6C160.856 111.093 160.709 110.46 160.709 109.7C160.709 108.847 160.896 108.107 161.269 107.48C161.656 106.84 162.209 106.347 162.929 106C163.663 105.653 164.536 105.48 165.549 105.48C166.549 105.48 167.403 105.673 168.109 106.06C168.816 106.433 169.369 106.973 169.769 107.68C170.183 108.373 170.436 109.2 170.529 110.16L167.989 110.28C167.923 109.76 167.783 109.313 167.569 108.94C167.369 108.553 167.089 108.253 166.729 108.04C166.383 107.827 165.956 107.72 165.449 107.72C164.769 107.72 164.229 107.893 163.829 108.24C163.429 108.573 163.229 109.013 163.229 109.56C163.229 109.947 163.316 110.267 163.489 110.52C163.676 110.773 163.989 111 164.429 111.2C164.869 111.4 165.489 111.6 166.289 111.8C167.396 112.093 168.269 112.44 168.909 112.84C169.563 113.24 170.029 113.72 170.309 114.28C170.589 114.84 170.729 115.5 170.729 116.26C170.729 117.073 170.523 117.787 170.109 118.4C169.696 119.013 169.116 119.487 168.369 119.82C167.623 120.153 166.736 120.32 165.709 120.32Z" fill="#9EEF20"/>
</svg>
