<svg width="238" height="110" viewBox="0 0 238 110" fill="none" xmlns="http://www.w3.org/2000/svg">
<path d="M2.6 58C2.6 53.9267 3.07667 50.4167 4.03 47.47C4.98333 44.48 6.63 41.8367 8.97 39.54C11.31 37.2 14.5167 34.99 18.59 32.91C19.8033 32.3033 20.8433 31.675 21.71 31.025C22.5767 30.375 23.2483 29.6167 23.725 28.75C24.2017 27.8833 24.44 26.8 24.44 25.5C24.44 24.5033 24.2667 23.6583 23.92 22.965C23.6167 22.2717 23.14 21.7517 22.49 21.405C21.8833 21.015 21.1033 20.82 20.15 20.82C18.4167 20.82 17.1817 21.3617 16.445 22.445C15.7083 23.485 15.1667 25.0233 14.82 27.06L2.73 26.41C3.16333 21.5567 4.83167 17.7433 7.735 14.97C10.6817 12.1967 14.9067 10.81 20.41 10.81C24.05 10.81 27.04 11.395 29.38 12.565C31.7633 13.6917 33.5183 15.295 34.645 17.375C35.815 19.455 36.4 21.9033 36.4 24.72C36.4 27.2767 36.01 29.465 35.23 31.285C34.45 33.105 33.1933 34.7733 31.46 36.29C29.7267 37.7633 27.3867 39.3233 24.44 40.97C22.1433 42.2267 20.3667 43.2667 19.11 44.09C17.8967 44.9133 17.03 45.6067 16.51 46.17C16.0333 46.69 15.7517 47.21 15.665 47.73H36.4V58H2.6ZM56.5246 59.04C53.1013 59.04 50.1546 58.4333 47.6846 57.22C45.2579 55.9633 43.3513 54.3167 41.9646 52.28C40.6213 50.2 39.8413 47.9033 39.6246 45.39L51.5846 44.74C51.8446 46.17 52.3429 47.2533 53.0796 47.99C53.8163 48.6833 54.9646 49.03 56.5246 49.03C58.0846 49.03 59.2979 48.5317 60.1646 47.535C61.0313 46.495 61.4646 44.87 61.4646 42.66C61.4646 41.23 61.2479 40.0383 60.8146 39.085C60.3813 38.0883 59.7963 37.3517 59.0596 36.875C58.3229 36.3983 57.4779 36.16 56.5246 36.16C55.3546 36.16 54.3796 36.485 53.5996 37.135C52.8629 37.785 52.3646 38.5433 52.1046 39.41L40.1446 38.63L42.7446 11.85H71.7346V22.12H51.9746L50.6746 33.755L48.0746 32.91C48.8113 31.74 49.6779 30.7217 50.6746 29.855C51.7146 28.9883 52.8846 28.3383 54.1846 27.905C55.5279 27.4283 57.0013 27.19 58.6046 27.19C61.7246 27.19 64.3896 27.8617 66.5996 29.205C68.8096 30.5483 70.4996 32.39 71.6696 34.73C72.8396 37.07 73.4246 39.735 73.4246 42.725C73.4246 45.975 72.7313 48.835 71.3446 51.305C70.0013 53.7317 68.0513 55.6383 65.4946 57.025C62.9813 58.3683 59.9913 59.04 56.5246 59.04ZM111.984 58L123.684 11.85H137.464L149.164 58H137.594L130.574 27.06L123.554 58H111.984ZM121.474 50.395L124.074 40.58H137.074L139.674 50.395H121.474ZM151.998 58V11.85H161.748L172.148 35.055V11.85H183.198V58H173.448L163.048 34.795V58H151.998ZM204.753 59.04C201.113 59.04 198.058 58.3683 195.588 57.025C193.161 55.6817 191.298 53.7317 189.998 51.175C188.741 48.6183 187.983 45.4983 187.723 41.815L199.358 41.295C199.618 43.0717 200.008 44.545 200.528 45.715C201.048 46.8417 201.72 47.6867 202.543 48.25C203.366 48.77 204.341 49.03 205.468 49.03C206.335 49.03 207.093 48.9 207.743 48.64C208.393 48.3367 208.891 47.9033 209.238 47.34C209.628 46.7767 209.823 46.0833 209.823 45.26C209.823 44.2633 209.563 43.3967 209.043 42.66C208.566 41.88 207.765 41.1867 206.638 40.58C205.511 39.9733 204.016 39.4533 202.153 39.02C199.163 38.3267 196.65 37.4383 194.613 36.355C192.576 35.2717 191.038 33.8633 189.998 32.13C189.001 30.3533 188.503 28.1 188.503 25.37C188.503 22.38 189.11 19.8017 190.323 17.635C191.58 15.425 193.421 13.735 195.848 12.565C198.275 11.395 201.243 10.81 204.753 10.81C208.133 10.81 211.015 11.395 213.398 12.565C215.781 13.735 217.623 15.5117 218.923 17.895C220.266 20.235 221.025 23.2033 221.198 26.8L209.433 27.255C209.26 25.825 208.935 24.6333 208.458 23.68C208.025 22.7267 207.44 22.0117 206.703 21.535C205.966 21.0583 205.121 20.82 204.168 20.82C202.955 20.82 201.98 21.1667 201.243 21.86C200.55 22.5533 200.203 23.5067 200.203 24.72C200.203 25.63 200.441 26.4317 200.918 27.125C201.438 27.775 202.283 28.3817 203.453 28.945C204.666 29.465 206.313 29.9633 208.393 30.44C211.73 31.1767 214.351 32.2167 216.258 33.56C218.165 34.9033 219.508 36.5067 220.288 38.37C221.111 40.19 221.523 42.27 221.523 44.61C221.523 47.6 220.873 50.1783 219.573 52.345C218.273 54.4683 216.366 56.115 213.853 57.285C211.383 58.455 208.35 59.04 204.753 59.04Z" fill="#9EEF20"/>
<path d="M1.90782 94V79.8H5.44782C6.74115 79.8 7.85448 80.08 8.78782 80.64C9.73448 81.1867 10.4545 81.9933 10.9478 83.06C11.4545 84.1133 11.7078 85.4 11.7078 86.92C11.7078 88.44 11.4545 89.7267 10.9478 90.78C10.4545 91.8333 9.73448 92.6333 8.78782 93.18C7.85448 93.7267 6.74115 94 5.44782 94H1.90782ZM4.36782 91.72H5.44782C6.63448 91.72 7.54782 91.32 8.18782 90.52C8.82782 89.72 9.14782 88.52 9.14782 86.92C9.14782 85.3067 8.82782 84.1 8.18782 83.3C7.54782 82.4867 6.63448 82.08 5.44782 82.08H4.36782V91.72ZM16.48 85.76L17.46 82.62H16.22V79.8H19.1V82.32L17.78 85.76H16.48ZM24.8922 94V79.8H33.6922V82.08H27.3722V85.78H33.4522V87.98H27.3722V91.72H33.8522V94H24.8922ZM35.3644 94L38.9244 86.86L35.4244 79.8H38.1644L40.5844 85.02L43.0044 79.8H45.7044L42.2044 86.88L45.7644 94H43.0244L40.5444 88.7L38.0444 94H35.3644ZM47.5966 94V79.8H52.0966C53.0699 79.8 53.9299 79.9867 54.6766 80.36C55.4232 80.7333 56.0032 81.2533 56.4166 81.92C56.8299 82.5867 57.0366 83.38 57.0366 84.3C57.0366 85.2067 56.8299 85.9933 56.4166 86.66C56.0032 87.3267 55.4232 87.8467 54.6766 88.22C53.9299 88.58 53.0699 88.76 52.0966 88.76H50.0766V94H47.5966ZM50.0766 86.5H51.8366C52.7299 86.5 53.3899 86.3133 53.8166 85.94C54.2566 85.5533 54.4766 85.0067 54.4766 84.3C54.4766 83.5667 54.2566 83.0133 53.8166 82.64C53.3899 82.2667 52.7299 82.08 51.8366 82.08H50.0766V86.5ZM59.0688 94V79.8H67.8688V82.08H61.5488V85.78H67.6288V87.98H61.5488V91.72H68.0288V94H59.0688ZM62.5688 78.54L63.8488 75.72H66.4088L64.6088 78.54H62.5688ZM70.0209 94V79.8H74.5209C76.0409 79.8 77.2343 80.18 78.1009 80.94C78.9676 81.7 79.4009 82.74 79.4009 84.06C79.4009 84.74 79.2476 85.34 78.9409 85.86C78.6476 86.38 78.2543 86.7933 77.7609 87.1C77.2676 87.3933 76.7276 87.56 76.1409 87.6L76.0609 87.34C77.0876 87.38 77.8543 87.6067 78.3609 88.02C78.8676 88.42 79.1609 89.08 79.2409 90L79.5809 94H77.1009L76.8009 90.58C76.7609 90.0733 76.6609 89.68 76.5009 89.4C76.3543 89.12 76.1209 88.9267 75.8009 88.82C75.4943 88.7133 75.0676 88.66 74.5209 88.66H72.5009V94H70.0209ZM72.5009 86.38H74.4609C75.2343 86.38 75.8209 86.1933 76.2209 85.82C76.6343 85.4467 76.8409 84.9133 76.8409 84.22C76.8409 83.5267 76.6343 83 76.2209 82.64C75.8209 82.2667 75.2343 82.08 74.4609 82.08H72.5009V86.38ZM81.6531 94V91.72H84.8931V82.08H81.6531V79.8H90.6131V82.08H87.3731V91.72H90.6131V94H81.6531ZM93.2453 94V79.8H102.045V82.08H95.7253V85.78H101.805V87.98H95.7253V91.72H102.205V94H93.2453ZM104.238 94V79.8H106.898L111.198 90V79.8H113.598V94H110.938L106.638 83.8V94H104.238ZM120.39 94.32C119.23 94.32 118.25 94.02 117.45 93.42C116.65 92.82 116.036 91.9667 115.61 90.86C115.196 89.7533 114.99 88.44 114.99 86.92C114.99 85.3867 115.196 84.0667 115.61 82.96C116.036 81.8533 116.65 81 117.45 80.4C118.25 79.7867 119.23 79.48 120.39 79.48C121.723 79.48 122.836 79.92 123.73 80.8C124.623 81.68 125.196 82.9267 125.45 84.54L122.91 84.66C122.736 83.7 122.423 82.9733 121.97 82.48C121.53 81.9733 121.003 81.72 120.39 81.72C119.763 81.72 119.236 81.9267 118.81 82.34C118.396 82.74 118.083 83.3267 117.87 84.1C117.656 84.8733 117.55 85.8133 117.55 86.92C117.55 88.0133 117.656 88.9467 117.87 89.72C118.083 90.4933 118.396 91.08 118.81 91.48C119.236 91.88 119.763 92.08 120.39 92.08C121.03 92.08 121.583 91.8133 122.05 91.28C122.516 90.7333 122.83 89.94 122.99 88.9L125.53 89C125.29 90.68 124.716 91.9867 123.81 92.92C122.916 93.8533 121.776 94.32 120.39 94.32ZM127.422 94V79.8H136.222V82.08H129.902V85.78H135.982V87.98H129.902V91.72H136.382V94H127.422Z" fill="#9EEF20"/>
</svg>
