<svg width="279" height="140" viewBox="0 0 279 140" fill="none" xmlns="http://www.w3.org/2000/svg">
<path d="M8.97 49.94L24.83 19.26L30.03 19.91L14.17 50.59L8.97 49.94ZM19.5 59.04C15.9467 59.04 12.9133 58.0867 10.4 56.18C7.88667 54.23 5.95833 51.4567 4.615 47.86C3.27167 44.2633 2.6 39.9733 2.6 34.99C2.6 30.0067 3.27167 25.7167 4.615 22.12C5.95833 18.48 7.88667 15.685 10.4 13.735C12.9133 11.785 15.9467 10.81 19.5 10.81C23.0533 10.81 26.0867 11.785 28.6 13.735C31.1133 15.685 33.0417 18.48 34.385 22.12C35.7283 25.7167 36.4 30.0067 36.4 34.99C36.4 39.9733 35.7283 44.2633 34.385 47.86C33.0417 51.4567 31.1133 54.23 28.6 56.18C26.0867 58.0867 23.0533 59.04 19.5 59.04ZM19.5 49.03C20.5833 49.03 21.4717 48.575 22.165 47.665C22.9017 46.7117 23.465 45.195 23.855 43.115C24.245 41.035 24.44 38.3267 24.44 34.99C24.44 31.61 24.245 28.88 23.855 26.8C23.465 24.72 22.9017 23.2033 22.165 22.25C21.4717 21.2967 20.5833 20.82 19.5 20.82C18.46 20.82 17.5717 21.2967 16.835 22.25C16.0983 23.2033 15.535 24.72 15.145 26.8C14.755 28.88 14.56 31.61 14.56 34.99C14.56 38.3267 14.755 41.035 15.145 43.115C15.535 45.195 16.0983 46.7117 16.835 47.665C17.5717 48.575 18.46 49.03 19.5 49.03ZM51.9746 58V30.31H41.1846V20.69H45.4746C47.2946 20.69 48.7679 20.4083 49.8946 19.845C51.0646 19.2817 51.9096 18.35 52.4296 17.05C52.9929 15.75 53.2746 14.0167 53.2746 11.85H63.6746V58H51.9746ZM39.6246 58V47.73H73.4246V58H39.6246ZM16.51 120.85L11.44 98.75L13 98.36V128H2.6V81.85H14.3L20.67 105.25H18.33L24.7 81.85H36.4V128H26V98.36L27.56 98.75L22.49 120.85H16.51ZM41.5746 128V117.73H50.6746V92.12H41.5746V81.85H71.4746V92.12H62.3746V117.73H71.4746V128H41.5746ZM79.8992 128V81.85H91.5992V125.335L82.1092 117.73H109.799V128H79.8992ZM116.924 128V81.85H128.624V125.335L119.134 117.73H146.824V128H116.924ZM152.648 128V117.73H161.748V92.12H152.648V81.85H182.548V92.12H173.448V117.73H182.548V128H152.648ZM204.623 129.04C200.853 129.04 197.646 128.108 195.003 126.245C192.403 124.382 190.41 121.673 189.023 118.12C187.636 114.523 186.943 110.147 186.943 104.99C186.943 99.8333 187.636 95.4567 189.023 91.86C190.41 88.2633 192.403 85.5333 195.003 83.67C197.646 81.7633 200.853 80.81 204.623 80.81C208.393 80.81 211.6 81.7633 214.243 83.67C216.886 85.5333 218.88 88.2633 220.223 91.86C221.61 95.4567 222.303 99.8333 222.303 104.99C222.303 110.147 221.61 114.523 220.223 118.12C218.88 121.673 216.886 124.382 214.243 126.245C211.6 128.108 208.393 129.04 204.623 129.04ZM204.623 119.03C205.923 119.03 206.985 118.575 207.808 117.665C208.675 116.755 209.303 115.282 209.693 113.245C210.126 111.165 210.343 108.413 210.343 104.99C210.343 101.567 210.126 98.815 209.693 96.735C209.303 94.655 208.675 93.16 207.808 92.25C206.985 91.2967 205.923 90.82 204.623 90.82C203.366 90.82 202.305 91.2967 201.438 92.25C200.571 93.16 199.921 94.655 199.488 96.735C199.098 98.815 198.903 101.567 198.903 104.99C198.903 108.413 199.098 111.165 199.488 113.245C199.921 115.282 200.571 116.755 201.438 117.665C202.305 118.575 203.366 119.03 204.623 119.03ZM226.048 128V81.85H235.798L246.198 105.055V81.85H257.248V128H247.498L237.098 104.795V128H226.048Z" fill="#9EEF20"/>
<path d="M89.9388 32V17.8H93.4788C94.7722 17.8 95.8855 18.08 96.8188 18.64C97.7655 19.1867 98.4855 19.9933 98.9788 21.06C99.4855 22.1133 99.7388 23.4 99.7388 24.92C99.7388 26.44 99.4855 27.7267 98.9788 28.78C98.4855 29.8333 97.7655 30.6333 96.8188 31.18C95.8855 31.7267 94.7722 32 93.4788 32H89.9388ZM92.3988 29.72H93.4788C94.6655 29.72 95.5788 29.32 96.2188 28.52C96.8588 27.72 97.1788 26.52 97.1788 24.92C97.1788 23.3067 96.8588 22.1 96.2188 21.3C95.5788 20.4867 94.6655 20.08 93.4788 20.08H92.3988V29.72ZM101.531 32V17.8H110.331V20.08H104.011V23.78H110.091V25.98H104.011V29.72H110.491V32H101.531ZM127.775 30.16L125.535 20.84L125.835 20.8V32H123.515V17.8H126.515L128.975 27.68H128.215L130.675 17.8H133.675V32H131.355V20.8L131.655 20.84L129.415 30.16H127.775ZM135.708 32V17.8H144.508V20.08H138.188V23.78H144.268V25.98H138.188V29.72H144.668V32H135.708ZM139.348 16.54L137.548 13.72H140.108L141.388 16.54H139.348ZM150.14 32V20.08H146.18V17.8H156.58V20.08H152.62V32H150.14ZM158.052 32V17.8H162.552C164.072 17.8 165.265 18.18 166.132 18.94C166.999 19.7 167.432 20.74 167.432 22.06C167.432 22.74 167.279 23.34 166.972 23.86C166.679 24.38 166.285 24.7933 165.792 25.1C165.299 25.3933 164.759 25.56 164.172 25.6L164.092 25.34C165.119 25.38 165.885 25.6067 166.392 26.02C166.899 26.42 167.192 27.08 167.272 28L167.612 32H165.132L164.832 28.58C164.792 28.0733 164.692 27.68 164.532 27.4C164.385 27.12 164.152 26.9267 163.832 26.82C163.525 26.7133 163.099 26.66 162.552 26.66H160.532V32H158.052ZM160.532 24.38H162.492C163.265 24.38 163.852 24.1933 164.252 23.82C164.665 23.4467 164.872 22.9133 164.872 22.22C164.872 21.5267 164.665 21 164.252 20.64C163.852 20.2667 163.265 20.08 162.492 20.08H160.532V24.38ZM169.884 32V17.8H178.684V20.08H172.364V23.78H178.444V25.98H172.364V29.72H178.844V32H169.884ZM197.029 32.32C195.869 32.32 194.889 32.02 194.089 31.42C193.289 30.82 192.675 29.9667 192.249 28.86C191.835 27.7533 191.629 26.44 191.629 24.92C191.629 23.3867 191.835 22.0667 192.249 20.96C192.675 19.8533 193.289 19 194.089 18.4C194.889 17.7867 195.869 17.48 197.029 17.48C198.362 17.48 199.475 17.92 200.369 18.8C201.262 19.68 201.835 20.9267 202.089 22.54L199.549 22.66C199.375 21.7 199.062 20.9733 198.609 20.48C198.169 19.9733 197.642 19.72 197.029 19.72C196.402 19.72 195.875 19.9267 195.449 20.34C195.035 20.74 194.722 21.3267 194.509 22.1C194.295 22.8733 194.189 23.8133 194.189 24.92C194.189 26.0133 194.295 26.9467 194.509 27.72C194.722 28.4933 195.035 29.08 195.449 29.48C195.875 29.88 196.402 30.08 197.029 30.08C197.669 30.08 198.222 29.8133 198.689 29.28C199.155 28.7333 199.469 27.94 199.629 26.9L202.169 27C201.929 28.68 201.355 29.9867 200.449 30.92C199.555 31.8533 198.415 32.32 197.029 32.32ZM202.761 32L206.801 17.8H209.881L213.921 32H211.381L208.341 20.6L205.301 32H202.761ZM205.241 28.64L205.921 26.42H210.761L211.441 28.64H205.241ZM215.013 32V17.8H219.513C221.033 17.8 222.226 18.18 223.093 18.94C223.96 19.7 224.393 20.74 224.393 22.06C224.393 22.74 224.24 23.34 223.933 23.86C223.64 24.38 223.246 24.7933 222.753 25.1C222.26 25.3933 221.72 25.56 221.133 25.6L221.053 25.34C222.08 25.38 222.846 25.6067 223.353 26.02C223.86 26.42 224.153 27.08 224.233 28L224.573 32H222.093L221.793 28.58C221.753 28.0733 221.653 27.68 221.493 27.4C221.346 27.12 221.113 26.9267 220.793 26.82C220.486 26.7133 220.06 26.66 219.513 26.66H217.493V32H215.013ZM217.493 24.38H219.453C220.226 24.38 220.813 24.1933 221.213 23.82C221.626 23.4467 221.833 22.9133 221.833 22.22C221.833 21.5267 221.626 21 221.213 20.64C220.813 20.2667 220.226 20.08 219.453 20.08H217.493V24.38ZM226.405 32V17.8H230.905C232.425 17.8 233.618 18.18 234.485 18.94C235.352 19.7 235.785 20.74 235.785 22.06C235.785 22.74 235.632 23.34 235.325 23.86C235.032 24.38 234.638 24.7933 234.145 25.1C233.652 25.3933 233.112 25.56 232.525 25.6L232.445 25.34C233.472 25.38 234.238 25.6067 234.745 26.02C235.252 26.42 235.545 27.08 235.625 28L235.965 32H233.485L233.185 28.58C233.145 28.0733 233.045 27.68 232.885 27.4C232.738 27.12 232.505 26.9267 232.185 26.82C231.878 26.7133 231.452 26.66 230.905 26.66H228.885V32H226.405ZM228.885 24.38H230.845C231.618 24.38 232.205 24.1933 232.605 23.82C233.018 23.4467 233.225 22.9133 233.225 22.22C233.225 21.5267 233.018 21 232.605 20.64C232.205 20.2667 231.618 20.08 230.845 20.08H228.885V24.38ZM238.237 32V17.8H247.037V20.08H240.717V23.78H246.797V25.98H240.717V29.72H247.197V32H238.237ZM241.737 16.54L243.017 13.72H245.577L243.777 16.54H241.737ZM254.049 32.32C253.009 32.32 252.103 32.1133 251.329 31.7C250.569 31.2867 249.969 30.7067 249.529 29.96C249.089 29.2 248.829 28.3067 248.749 27.28L251.269 27.14C251.363 27.7933 251.529 28.34 251.769 28.78C252.023 29.2067 252.349 29.5333 252.749 29.76C253.163 29.9733 253.636 30.08 254.169 30.08C254.676 30.08 255.103 30.0133 255.449 29.88C255.809 29.7467 256.083 29.5467 256.269 29.28C256.456 29.0133 256.549 28.6933 256.549 28.32C256.549 27.92 256.456 27.5733 256.269 27.28C256.083 26.9867 255.749 26.7133 255.269 26.46C254.789 26.2067 254.103 25.96 253.209 25.72C252.249 25.4667 251.463 25.1733 250.849 24.84C250.236 24.5067 249.783 24.0933 249.489 23.6C249.196 23.0933 249.049 22.46 249.049 21.7C249.049 20.8467 249.236 20.1067 249.609 19.48C249.996 18.84 250.549 18.3467 251.269 18C252.003 17.6533 252.876 17.48 253.889 17.48C254.889 17.48 255.743 17.6733 256.449 18.06C257.156 18.4333 257.709 18.9733 258.109 19.68C258.523 20.3733 258.776 21.2 258.869 22.16L256.329 22.28C256.263 21.76 256.123 21.3133 255.909 20.94C255.709 20.5533 255.429 20.2533 255.069 20.04C254.723 19.8267 254.296 19.72 253.789 19.72C253.109 19.72 252.569 19.8933 252.169 20.24C251.769 20.5733 251.569 21.0133 251.569 21.56C251.569 21.9467 251.656 22.2667 251.829 22.52C252.016 22.7733 252.329 23 252.769 23.2C253.209 23.4 253.829 23.6 254.629 23.8C255.736 24.0933 256.609 24.44 257.249 24.84C257.903 25.24 258.369 25.72 258.649 26.28C258.929 26.84 259.069 27.5 259.069 28.26C259.069 29.0733 258.863 29.7867 258.449 30.4C258.036 31.0133 257.456 31.4867 256.709 31.82C255.963 32.1533 255.076 32.32 254.049 32.32ZM94.4988 58.32C93.3388 58.32 92.3588 58.02 91.5588 57.42C90.7588 56.82 90.1455 55.9667 89.7188 54.86C89.3055 53.7533 89.0988 52.44 89.0988 50.92C89.0988 49.3867 89.3055 48.0667 89.7188 46.96C90.1455 45.8533 90.7588 45 91.5588 44.4C92.3588 43.7867 93.3388 43.48 94.4988 43.48C95.8322 43.48 96.9455 43.92 97.8388 44.8C98.7322 45.68 99.3055 46.9267 99.5588 48.54L97.0188 48.66C96.8455 47.7 96.5322 46.9733 96.0788 46.48C95.6388 45.9733 95.1122 45.72 94.4988 45.72C93.8722 45.72 93.3455 45.9267 92.9188 46.34C92.5055 46.74 92.1922 47.3267 91.9788 48.1C91.7655 48.8733 91.6588 49.8133 91.6588 50.92C91.6588 52.0133 91.7655 52.9467 91.9788 53.72C92.1922 54.4933 92.5055 55.08 92.9188 55.48C93.3455 55.88 93.8722 56.08 94.4988 56.08C95.1388 56.08 95.6922 55.8133 96.1588 55.28C96.6255 54.7333 96.9388 53.94 97.0988 52.9L99.6388 53C99.3988 54.68 98.8255 55.9867 97.9188 56.92C97.0255 57.8533 95.8855 58.32 94.4988 58.32ZM105.811 58.32C104.678 58.32 103.711 58.0333 102.911 57.46C102.124 56.8867 101.524 56.0467 101.111 54.94C100.698 53.8333 100.491 52.4933 100.491 50.92C100.491 49.32 100.698 47.9667 101.111 46.86C101.524 45.7533 102.124 44.9133 102.911 44.34C103.711 43.7667 104.678 43.48 105.811 43.48C106.944 43.48 107.904 43.7667 108.691 44.34C109.491 44.9133 110.098 45.7533 110.511 46.86C110.924 47.9667 111.131 49.32 111.131 50.92C111.131 52.4933 110.924 53.8333 110.511 54.94C110.098 56.0467 109.491 56.8867 108.691 57.46C107.904 58.0333 106.944 58.32 105.811 58.32ZM105.811 56.08C106.411 56.08 106.918 55.8933 107.331 55.52C107.744 55.1467 108.051 54.58 108.251 53.82C108.464 53.0467 108.571 52.08 108.571 50.92C108.571 49.76 108.464 48.7933 108.251 48.02C108.051 47.2467 107.744 46.6733 107.331 46.3C106.918 45.9133 106.411 45.72 105.811 45.72C105.211 45.72 104.704 45.9133 104.291 46.3C103.878 46.6733 103.564 47.2467 103.351 48.02C103.151 48.7933 103.051 49.76 103.051 50.92C103.051 52.08 103.151 53.0467 103.351 53.82C103.564 54.58 103.878 55.1467 104.291 55.52C104.704 55.8933 105.211 56.08 105.811 56.08ZM112.523 58V43.8H115.183L119.483 54V43.8H121.883V58H119.223L114.923 47.8V58H112.523ZM128.735 58.32C127.695 58.32 126.789 58.1133 126.015 57.7C125.255 57.2867 124.655 56.7067 124.215 55.96C123.775 55.2 123.515 54.3067 123.435 53.28L125.955 53.14C126.049 53.7933 126.215 54.34 126.455 54.78C126.709 55.2067 127.035 55.5333 127.435 55.76C127.849 55.9733 128.322 56.08 128.855 56.08C129.362 56.08 129.789 56.0133 130.135 55.88C130.495 55.7467 130.769 55.5467 130.955 55.28C131.142 55.0133 131.235 54.6933 131.235 54.32C131.235 53.92 131.142 53.5733 130.955 53.28C130.769 52.9867 130.435 52.7133 129.955 52.46C129.475 52.2067 128.789 51.96 127.895 51.72C126.935 51.4667 126.149 51.1733 125.535 50.84C124.922 50.5067 124.469 50.0933 124.175 49.6C123.882 49.0933 123.735 48.46 123.735 47.7C123.735 46.8467 123.922 46.1067 124.295 45.48C124.682 44.84 125.235 44.3467 125.955 44C126.689 43.6533 127.562 43.48 128.575 43.48C129.575 43.48 130.429 43.6733 131.135 44.06C131.842 44.4333 132.395 44.9733 132.795 45.68C133.209 46.3733 133.462 47.2 133.555 48.16L131.015 48.28C130.949 47.76 130.809 47.3133 130.595 46.94C130.395 46.5533 130.115 46.2533 129.755 46.04C129.409 45.8267 128.982 45.72 128.475 45.72C127.795 45.72 127.255 45.8933 126.855 46.24C126.455 46.5733 126.255 47.0133 126.255 47.56C126.255 47.9467 126.342 48.2667 126.515 48.52C126.702 48.7733 127.015 49 127.455 49.2C127.895 49.4 128.515 49.6 129.315 49.8C130.422 50.0933 131.295 50.44 131.935 50.84C132.589 51.24 133.055 51.72 133.335 52.28C133.615 52.84 133.755 53.5 133.755 54.26C133.755 55.0733 133.549 55.7867 133.135 56.4C132.722 57.0133 132.142 57.4867 131.395 57.82C130.649 58.1533 129.762 58.32 128.735 58.32ZM138.748 58V46.08H134.788V43.8H145.188V46.08H141.228V58H138.748ZM146.66 58V43.8H151.16C152.68 43.8 153.873 44.18 154.74 44.94C155.606 45.7 156.04 46.74 156.04 48.06C156.04 48.74 155.886 49.34 155.58 49.86C155.286 50.38 154.893 50.7933 154.4 51.1C153.906 51.3933 153.366 51.56 152.78 51.6L152.7 51.34C153.726 51.38 154.493 51.6067 155 52.02C155.506 52.42 155.8 53.08 155.88 54L156.22 58H153.74L153.44 54.58C153.4 54.0733 153.3 53.68 153.14 53.4C152.993 53.12 152.76 52.9267 152.44 52.82C152.133 52.7133 151.706 52.66 151.16 52.66H149.14V58H146.66ZM149.14 50.38H151.1C151.873 50.38 152.46 50.1933 152.86 49.82C153.273 49.4467 153.48 48.9133 153.48 48.22C153.48 47.5267 153.273 47 152.86 46.64C152.46 46.2667 151.873 46.08 151.1 46.08H149.14V50.38ZM162.772 58.32C161.239 58.32 160.039 57.8667 159.172 56.96C158.319 56.04 157.892 54.7467 157.892 53.08V43.8H160.372V53.24C160.372 54.1467 160.572 54.8467 160.972 55.34C161.385 55.8333 161.985 56.08 162.772 56.08C163.559 56.08 164.152 55.8333 164.552 55.34C164.965 54.8467 165.172 54.1467 165.172 53.24V43.8H167.652V53.08C167.652 54.7467 167.219 56.04 166.352 56.96C165.499 57.8667 164.305 58.32 162.772 58.32ZM169.684 58V55.72H172.924V46.08H169.684V43.8H178.644V46.08H175.404V55.72H178.644V58H169.684ZM184.316 58V46.08H180.356V43.8H190.756V46.08H186.796V58H184.316ZM197.089 58.32C196.049 58.32 195.142 58.1133 194.369 57.7C193.609 57.2867 193.009 56.7067 192.569 55.96C192.129 55.2 191.869 54.3067 191.789 53.28L194.309 53.14C194.402 53.7933 194.569 54.34 194.809 54.78C195.062 55.2067 195.389 55.5333 195.789 55.76C196.202 55.9733 196.675 56.08 197.209 56.08C197.715 56.08 198.142 56.0133 198.489 55.88C198.849 55.7467 199.122 55.5467 199.309 55.28C199.495 55.0133 199.589 54.6933 199.589 54.32C199.589 53.92 199.495 53.5733 199.309 53.28C199.122 52.9867 198.789 52.7133 198.309 52.46C197.829 52.2067 197.142 51.96 196.249 51.72C195.289 51.4667 194.502 51.1733 193.889 50.84C193.275 50.5067 192.822 50.0933 192.529 49.6C192.235 49.0933 192.089 48.46 192.089 47.7C192.089 46.8467 192.275 46.1067 192.649 45.48C193.035 44.84 193.589 44.3467 194.309 44C195.042 43.6533 195.915 43.48 196.929 43.48C197.929 43.48 198.782 43.6733 199.489 44.06C200.195 44.4333 200.749 44.9733 201.149 45.68C201.562 46.3733 201.815 47.2 201.909 48.16L199.369 48.28C199.302 47.76 199.162 47.3133 198.949 46.94C198.749 46.5533 198.469 46.2533 198.109 46.04C197.762 45.8267 197.335 45.72 196.829 45.72C196.149 45.72 195.609 45.8933 195.209 46.24C194.809 46.5733 194.609 47.0133 194.609 47.56C194.609 47.9467 194.695 48.2667 194.869 48.52C195.055 48.7733 195.369 49 195.809 49.2C196.249 49.4 196.869 49.6 197.669 49.8C198.775 50.0933 199.649 50.44 200.289 50.84C200.942 51.24 201.409 51.72 201.689 52.28C201.969 52.84 202.109 53.5 202.109 54.26C202.109 55.0733 201.902 55.7867 201.489 56.4C201.075 57.0133 200.495 57.4867 199.749 57.82C199.002 58.1533 198.115 58.32 197.089 58.32Z" fill="#9EEF20"/>
</svg>
